<?xml version="1.0" encoding="UTF-8"?>
<svg version="1.1" xmlns="http://www.w3.org/2000/svg" width="1024" height="1024">
<path d="M0 0 C2.52738599 -0.00230887 5.0547713 -0.00548823 7.58215523 -0.00945449 C13.04288874 -0.01602741 18.503568 -0.01649379 23.96430206 -0.01136017 C32.08505233 -0.00374689 40.20576957 -0.00768756 48.32651967 -0.01377678 C62.83618549 -0.02427284 77.34583363 -0.02340966 91.85550112 -0.01761896 C104.55359199 -0.01257648 117.2516764 -0.01127973 129.94976807 -0.01366425 C130.79393501 -0.01381702 131.63810195 -0.01396979 132.50784971 -0.01412719 C135.93509036 -0.01474992 139.36233101 -0.01538673 142.78957165 -0.01604671 C174.90223722 -0.02215686 207.01489156 -0.01663026 239.1275554 -0.00585292 C267.62198956 0.00363741 296.11640584 0.00278812 324.61083984 -0.0067749 C356.66692059 -0.01749744 388.72299143 -0.02172343 420.77907372 -0.01555037 C424.19986343 -0.014909 427.62065315 -0.01428331 431.04144287 -0.01366425 C432.30475731 -0.01342701 432.30475731 -0.01342701 433.59359325 -0.01318499 C446.27986649 -0.01091552 458.96613254 -0.01356036 471.65240479 -0.01862335 C486.08552885 -0.02435499 500.51863255 -0.02288432 514.95175409 -0.01206186 C523.01718923 -0.00621268 531.08258022 -0.00577192 539.14801417 -0.01335421 C545.18665591 -0.0184023 551.22524118 -0.01288158 557.26387954 -0.00340506 C559.69430719 -0.00118477 562.12474081 -0.0022762 564.55516458 -0.00715664 C582.69100019 -0.04075959 600.87325486 0.19006469 618.49560547 4.94146729 C619.49269531 5.20129395 620.48978516 5.46112061 621.51708984 5.7288208 C673.84830001 19.73066319 719.85770675 49.95658844 751.49560547 94.25396729 C752.13973389 95.13109375 752.13973389 95.13109375 752.796875 96.02593994 C769.10890834 118.30248408 780.20650775 144.12538252 786.80810547 170.81646729 C787.03884766 171.74797607 787.26958984 172.67948486 787.50732422 173.63922119 C791.8496524 192.39744034 792.93408081 210.82755465 792.8765564 230.02374268 C792.88002021 232.56777935 792.8847896 235.11181452 792.89073813 237.6558466 C792.90059291 243.14990869 792.90130063 248.64384944 792.89359665 254.13791275 C792.88217148 262.30824025 792.88809039 270.47849396 792.89722157 278.64882109 C792.91296168 293.24748576 792.91167249 307.84611087 792.90298483 322.44477925 C792.89541974 335.22078926 792.89347662 347.99678483 792.89705276 360.77279663 C792.89728192 361.6222951 792.89751108 362.47179356 792.89774717 363.3470344 C792.89868128 366.79596029 792.8996365 370.24488617 792.90062647 373.69381205 C792.90979075 406.00664277 792.90150329 438.31944839 792.88533578 470.63227524 C792.87110038 499.30143343 792.87237432 527.97055163 792.88671875 556.63970947 C792.90280416 588.8957744 792.90914066 621.15181717 792.89988196 653.40788555 C792.8989199 656.85030301 792.89798137 660.29272047 792.89705276 663.73513794 C792.89669692 665.0064304 792.89669692 665.0064304 792.89633388 666.30340553 C792.89293034 679.06721583 792.89689569 691.83101005 792.90449142 704.59481812 C792.91309071 719.11683143 792.91087902 733.63879921 792.89464919 748.16080689 C792.88587844 756.27493484 792.88520979 764.38896406 792.89658772 772.50308933 C792.90416442 778.57972362 792.89587255 784.6562318 792.88166399 790.73285854 C792.87833564 793.17740504 792.87996591 795.6219649 792.88729136 798.06650269 C792.93761199 816.26662864 791.68925592 834.04068365 787.24560547 851.75396729 C787.03363525 852.60958252 786.82166504 853.46519775 786.60327148 854.34674072 C777.11013424 891.55793532 758.78852121 926.032275 732.00146484 953.69683838 C730.93918664 954.79528365 729.8838231 955.90043649 728.83349609 957.01031494 C719.47702013 966.88342207 709.55186406 975.34256452 698.49560547 983.25396729 C697.60035156 983.90824707 697.60035156 983.90824707 696.68701172 984.57574463 C674.56662857 1000.65816605 648.86754157 1011.74677429 622.49560547 1018.62896729 C621.64474365 1018.85576172 620.79388184 1019.08255615 619.91723633 1019.31622314 C600.42935142 1024.04795212 580.48481831 1024.695388 560.53710938 1024.63491821 C558.0091208 1024.63838388 555.48113375 1024.64315449 552.9531498 1024.64909995 C547.50336611 1024.65893788 542.05370483 1024.65967528 536.60391998 1024.65195847 C528.49932171 1024.64051419 520.39479762 1024.6464619 512.2901997 1024.65558339 C497.8074098 1024.67130901 483.32465981 1024.67004015 468.8418662 1024.66134665 C456.16713587 1024.65377654 443.49242011 1024.65184075 430.81768799 1024.65541458 C429.9743765 1024.65564374 429.13106502 1024.65587289 428.26219864 1024.65610899 C424.83824821 1024.65704313 421.41429778 1024.65799834 417.99034736 1024.65898828 C385.92243456 1024.66814913 353.85454706 1024.65987059 321.78663817 1024.64369759 C293.34521267 1024.62946258 264.90382749 1024.63073654 236.46240234 1024.64508057 C204.45019857 1024.66117181 172.43801712 1024.66749924 140.42580986 1024.65824378 C137.00838089 1024.65728174 133.59095192 1024.65634321 130.17352295 1024.65541458 C129.33216902 1024.65517735 128.49081508 1024.65494012 127.62396558 1024.6546957 C114.96245934 1024.65129455 102.30096932 1024.65525299 89.63946533 1024.66285324 C75.23142956 1024.67145917 60.82343967 1024.66922683 46.41540956 1024.65301101 C38.36855032 1024.64425132 30.32179062 1024.6435553 22.27493412 1024.65494953 C16.24317065 1024.66254281 10.21153376 1024.65421165 4.17977786 1024.64002581 C1.75747478 1024.63670503 -0.6648418 1024.63831019 -3.08713603 1024.64565317 C-22.63458271 1024.70031286 -42.38504735 1023.71367069 -61.37939453 1018.69146729 C-62.34949463 1018.43953613 -63.31959473 1018.18760498 -64.3190918 1017.92803955 C-115.07969182 1004.13805627 -160.11380262 973.23034496 -190.50439453 930.25396729 C-191.34549895 929.10549946 -192.18664302 927.95706066 -193.02783203 926.80865479 C-216.76338699 893.58459955 -231.71144139 850.55239185 -231.6358223 809.58489609 C-231.63787493 808.54076483 -231.63992756 807.49663356 -231.6420424 806.42086196 C-231.64769571 802.92297806 -231.6462572 799.42513375 -231.64483643 795.92724609 C-231.64742103 793.39356766 -231.65043445 790.85988963 -231.65383983 788.32621217 C-231.661057 782.09353041 -231.66361192 775.86086099 -231.66416888 769.62817555 C-231.66508442 762.16014096 -231.67175764 754.69211424 -231.67851571 747.22408305 C-231.69455967 729.17468157 -231.70047745 711.12528096 -231.70526445 693.07587363 C-231.7076023 684.53204342 -231.71120519 675.98821388 -231.71495983 667.44438419 C-231.72779476 638.18077714 -231.73851333 608.91717045 -231.74196243 579.65356064 C-231.74218406 577.81724787 -231.74240585 575.98093511 -231.74262778 574.14462234 C-231.74284842 572.30394515 -231.74306891 570.46326797 -231.74328923 568.62259078 C-231.74373178 564.93005482 -231.74417889 561.23751887 -231.74462891 557.54498291 C-231.7447383 556.62945173 -231.74484769 555.71392055 -231.74496039 554.77064599 C-231.7485891 525.10045293 -231.76450239 495.43028432 -231.78781927 465.76010061 C-231.81244298 434.36943008 -231.82613648 402.97877351 -231.82733035 371.58809304 C-231.8275018 368.13874832 -231.82771722 364.68940361 -231.82796478 361.2400589 C-231.82802055 360.39077259 -231.82807632 359.54148628 -231.82813378 358.66646402 C-231.8292821 345.02765326 -231.84028553 331.3888677 -231.85485184 317.75006543 C-231.86925395 304.02713009 -231.87243294 290.30422687 -231.86441186 276.58128604 C-231.85997286 268.44055265 -231.86374647 260.29992333 -231.87965037 252.15920371 C-231.89062274 246.06227274 -231.88570513 239.96545895 -231.8748785 233.86852339 C-231.8729291 231.41553992 -231.87596453 228.96254585 -231.88472286 226.50957724 C-231.94812676 207.53816523 -230.38651943 189.27545188 -225.81689453 170.81646729 C-225.56125732 169.77772461 -225.30562012 168.73898193 -225.04223633 167.66876221 C-215.50521848 130.2739873 -196.10769144 97.02274196 -169.50439453 69.25396729 C-168.95299805 68.67002197 -168.40160156 68.08607666 -167.83349609 67.48443604 C-158.48014748 57.61693889 -148.55547642 49.16166581 -137.50439453 41.25396729 C-136.60914063 40.5996875 -136.60914063 40.5996875 -135.69580078 39.93218994 C-111.4659374 22.31609029 -83.46248642 11.21414336 -54.50439453 4.25396729 C-53.87148558 4.1014843 -53.23857662 3.94900132 -52.5864886 3.79189764 C-35.3267357 -0.22040713 -17.62150049 -0.03538507 0 0 Z " fill="#141513" transform="translate(231.50439453125,-0.25396728515625)"/>
<path d="M0 0 C1.1323355 -0.00235223 2.26467099 -0.00470446 3.43131968 -0.00712797 C7.22918016 -0.01378991 11.0270062 -0.0133606 14.82487202 -0.01294994 C17.57390516 -0.01570399 20.3229356 -0.01993871 23.07196695 -0.02409142 C29.83708262 -0.03339628 36.60219175 -0.03733588 43.36731302 -0.03961039 C51.4722744 -0.0425779 59.57722714 -0.05127839 67.68218398 -0.06002467 C87.26823726 -0.08084544 106.85429204 -0.09133433 126.44035381 -0.10015428 C135.70738881 -0.10436334 144.97442316 -0.10958491 154.24145761 -0.11483881 C185.96987172 -0.13272511 217.69828601 -0.14772154 249.42670441 -0.155159 C251.41767284 -0.15563375 253.40864127 -0.15610964 255.3996097 -0.15658666 C256.38693444 -0.15682303 257.37425917 -0.15705941 258.39150284 -0.15730295 C263.39365068 -0.15850413 268.39579852 -0.15971959 273.39794636 -0.16094494 C274.88697157 -0.16130516 274.88697157 -0.16130516 276.40607809 -0.16167267 C308.59879826 -0.16956744 340.79148161 -0.19300494 372.9841857 -0.22550088 C407.02902603 -0.25980363 441.07384481 -0.27951043 475.11870271 -0.28280324 C478.85635397 -0.28322077 482.59400521 -0.28370033 486.33165646 -0.28422642 C487.71210487 -0.28441121 487.71210487 -0.28441121 489.12044114 -0.28459973 C503.92479356 -0.2869309 518.72910317 -0.30258589 533.53344033 -0.32306826 C548.41455359 -0.34333023 563.29561545 -0.34880175 578.17673995 -0.33929763 C587.01438994 -0.33408455 595.85186872 -0.33995111 604.68949404 -0.3618323 C610.59796883 -0.37535423 616.50632595 -0.37425113 622.41480195 -0.36143034 C625.77798305 -0.3545429 629.14057183 -0.35605926 632.50376596 -0.37099043 C655.13869466 -0.46524589 673.05702246 1.9190773 689.84692097 18.33734608 C699.68752165 28.6534077 704.94201737 42.20177931 704.82738972 56.44672108 C704.81893024 57.56083363 704.81893024 57.56083363 704.81029987 58.6974535 C704.48317242 73.61738037 697.86181185 87.45409297 687.51488972 98.13422108 C671.2011058 113.15751164 654.21353955 114.02616956 632.98408723 113.83065745 C629.36179067 113.80417153 625.73953642 113.81324366 622.11716938 113.81756496 C615.10788858 113.82073553 608.09907464 113.79322305 601.08991331 113.75455699 C592.97045999 113.7111193 584.85128148 113.70657565 576.73168659 113.70184803 C555.32601439 113.67042904 533.9204449 113.58666156 512.51488972 113.50922108 C464.66488972 113.38547108 416.81488972 113.26172108 367.51488972 113.13422108 C367.51488972 239.19422108 367.51488972 365.25422108 367.51488972 495.13422108 C346.72488972 495.13422108 325.93488972 495.13422108 304.51488972 495.13422108 C304.51488972 541.33422108 304.51488972 587.53422108 304.51488972 635.13422108 C325.30488972 635.13422108 346.09488972 635.13422108 367.51488972 635.13422108 C367.59738972 641.15672108 367.67988972 647.17922108 367.76488972 653.38422108 C367.80130573 655.25884022 367.83772175 657.13345936 367.87524128 659.06488514 C368.05147102 674.61939298 364.70155827 687.741961 353.76488972 699.38422108 C342.94046999 709.57069972 331.49883837 712.67896359 316.98681355 712.62421131 C303.26506668 712.20427577 293.53685174 705.57134558 284.26488972 695.88422108 C275.31378278 685.39965757 273.19778478 673.24329647 273.27438068 659.87761402 C273.27181741 658.22449124 273.27181741 658.22449124 273.26920235 656.53797203 C273.26592028 652.86222425 273.27689012 649.1866609 273.28783894 645.51093006 C273.28840333 642.86923787 273.28817391 640.22755681 273.28695393 637.58586597 C273.2859079 631.90727248 273.29215493 626.22872513 273.3034296 620.55014324 C273.31971998 612.33998854 273.32489622 604.12985603 273.32740559 595.91968692 C273.33177715 582.59754961 273.3450716 569.27543686 273.36401081 555.95331287 C273.38238358 543.01613964 273.39653324 530.07897309 273.40502644 517.14178944 C273.40555188 516.34363913 273.40607733 515.54548883 273.4066187 514.72315215 C273.40922887 510.71885681 273.41175627 506.71456142 273.41424251 502.71026599 C273.43495822 469.51823314 273.47016904 436.3262304 273.51488972 403.13422108 C274.29146427 402.82403538 275.06803883 402.51384968 275.86814594 402.19426441 C283.26543048 399.23939462 290.66236397 396.28364801 298.05892563 393.32696915 C301.85957183 391.80774471 305.66034272 390.28883398 309.46142292 388.77069569 C313.13504955 387.30342615 316.8083964 385.83545873 320.48146152 384.3667841 C321.91589241 383.79323778 323.35037867 383.21982991 324.78492069 382.64656162 C333.55146443 379.14232255 342.31261314 375.62661854 351.0040102 371.93877125 C355.30356672 370.13422108 355.30356672 370.13422108 357.51488972 370.13422108 C357.51488972 330.53422108 357.51488972 290.93422108 357.51488972 250.13422108 C354.21488972 249.14422108 350.91488972 248.15422108 347.51488972 247.13422108 C345.13972733 246.23202761 342.77878821 245.29112164 340.43676472 244.30609608 C339.7986536 244.04002048 339.16054249 243.77394489 338.50309467 243.4998064 C337.13322488 242.92845368 335.76419673 242.35507939 334.39596272 241.77982044 C330.68654791 240.22091113 326.97032214 238.67848283 323.25317097 237.13812733 C322.47417942 236.81524235 321.69518787 236.49235737 320.89259052 236.159688 C309.78502116 231.57299917 298.58547853 227.21499094 287.39086628 222.84613514 C286.60303257 222.53761112 285.81519886 222.2290871 285.0034914 221.91121387 C283.52107624 221.33078457 282.03778715 220.75258084 280.55350971 220.17693043 C275.62740228 218.24673364 275.62740228 218.24673364 274.51488972 217.13422108 C274.41957809 215.78081517 274.39300252 214.42248123 274.3946352 213.06572437 C274.3925732 211.75105434 274.3925732 211.75105434 274.39046955 210.40982533 C274.39406483 209.44094379 274.3976601 208.47206226 274.40136433 207.47382069 C274.4012183 206.45930332 274.40107227 205.44478596 274.40092182 204.39952564 C274.40162143 201.02851734 274.40941603 197.65756353 274.41723347 194.28656483 C274.41909748 191.95628864 274.42052146 189.62601207 274.42152119 187.29573536 C274.4253477 181.14884842 274.43517912 175.00198495 274.44622517 168.85510731 C274.45643643 162.58812242 274.46101819 156.32113375 274.46606159 150.05414295 C274.47680127 137.74749199 274.49387928 125.44085848 274.51488972 113.13422108 C273.59289518 113.13706898 273.59289518 113.13706898 272.65227449 113.13997442 C236.18501983 113.25197697 199.71779071 113.33771044 163.25039914 113.38954772 C158.86720821 113.39580091 154.48401763 113.40227256 150.10082722 113.40887928 C149.22824943 113.41019083 148.35567165 113.41150238 147.45665212 113.41285368 C133.3463952 113.43458289 119.23624062 113.47399066 105.12604432 113.51998506 C90.6369641 113.56681897 76.14793731 113.5945311 61.65878451 113.60466355 C52.72531557 113.61150837 43.79213593 113.63309064 34.85875608 113.67380341 C28.72452563 113.7003275 22.59044374 113.70820032 16.45616017 113.70172796 C12.92216263 113.69853999 9.38866896 113.70326601 5.85476208 113.73024845 C-12.96398033 113.86668613 -27.24930614 113.28986265 -42.48511028 101.13422108 C-43.09612591 100.70883045 -43.70714153 100.28343983 -44.33667278 99.84515858 C-54.67107185 92.15334557 -61.51459833 77.59002598 -63.48511028 65.13422108 C-64.16549267 54.42656381 -63.56095185 45.21805055 -59.48511028 35.13422108 C-59.18475872 34.38785389 -58.88440716 33.6414867 -58.57495403 32.87250233 C-52.51522679 19.52011632 -40.4996425 8.88922992 -27.16870403 3.13422108 C-18.37887228 -0.04540502 -9.24032817 -0.01315087 0 0 Z " fill="#FEFEFE" transform="translate(191.48511028289795,182.86577892303467)"/>
<path d="M0 0 C4.87651661 1.56079396 9.60251714 3.39219703 14.34643555 5.30834961 C15.17253736 5.64036534 15.99863916 5.97238108 16.84977436 6.31445789 C19.61276684 7.42541008 22.37473419 8.53888834 25.13671875 9.65234375 C27.12249427 10.4513521 29.10833582 11.25019637 31.09423828 12.04888916 C35.37568541 13.7711881 39.6566873 15.49458747 43.93734741 17.21884155 C50.74568714 19.96122224 57.55500695 22.70116323 64.36450195 25.44067383 C71.51323597 28.3167992 78.66189962 31.1930989 85.81022644 34.07023621 C110.12604655 43.85712797 134.44629368 53.63299326 158.76748657 63.40652466 C164.43283685 65.68320148 170.09800131 67.96034023 175.76309299 70.23766041 C180.05829341 71.96424141 184.35359827 73.69056249 188.64892006 75.41684151 C190.70672278 76.2439342 192.76448187 77.07113543 194.82219505 77.89845085 C205.14494695 82.04870669 215.47033724 86.19194905 225.80712891 90.30712891 C227.474759 90.9716184 229.14238704 91.63611308 230.81001282 92.3006134 C233.86563273 93.51802003 236.92258205 94.73200091 239.98039246 95.94389343 C241.31355206 96.47460831 242.64666954 97.00542899 243.97973633 97.53637695 C245.12694656 97.99156204 246.2741568 98.44674713 247.45613098 98.91572571 C250 100 250 100 251 101 C251.09417773 103.08619022 251.11742878 105.17560477 251.11352539 107.26391602 C251.11367142 107.91755127 251.11381744 108.57118652 251.1139679 109.24462891 C251.11326883 111.41442128 251.10547678 113.58412879 251.09765625 115.75390625 C251.09579205 117.25463311 251.09436816 118.75536057 251.09336853 120.25608826 C251.08954352 124.21318226 251.0797134 128.17023978 251.06866455 132.12731934 C251.05845006 136.16234849 251.05387083 140.19738353 251.04882812 144.23242188 C251.03809111 152.15496469 251.0210149 160.07747781 251 168 C250.0474382 168.3805806 249.0948764 168.76116119 248.1134491 169.15327454 C235.47078986 174.20465827 222.82891396 179.25800073 210.1875 184.3125 C209.14412727 184.72967789 208.10075455 185.14685577 207.02576447 185.57667542 C166.72948538 201.68938102 126.45572453 217.85779087 86.19213867 234.05200195 C75.84415753 238.2140022 65.49520624 242.37358176 55.14538574 246.53100586 C50.9334995 248.22293545 46.72204819 249.9159423 42.51086426 251.60961914 C37.21187036 253.74059112 31.91179742 255.86885829 26.61095047 257.99521637 C24.6225243 258.79333119 22.63445725 259.59234135 20.64677048 260.39229584 C17.91993965 261.48954276 15.19183262 262.58355391 12.46337891 263.67675781 C11.6598209 264.00095955 10.85626289 264.32516129 10.02835464 264.65918732 C9.28823009 264.95496422 8.54810555 265.25074112 7.78555298 265.55548096 C7.14695658 265.81195026 6.50836018 266.06841957 5.85041237 266.33266068 C3.942883 267.02059888 1.96724406 267.50818899 0 268 C0 244.24 0 220.48 0 196 C10.18875 192.16375 20.3775 188.3275 30.875 184.375 C57.47706001 174.35438794 84.06743219 164.30370613 110.64254761 154.21185303 C112.7914379 153.39593981 114.94046199 152.58037886 117.08963013 151.76519775 C122.38580779 149.7557227 127.67997378 147.74120878 132.96988678 145.71530628 C135.66704584 144.68282349 138.3651668 143.6528688 141.06340027 142.62319756 C142.36725783 142.12486874 143.67066029 141.6253474 144.97358704 141.12458992 C146.77877132 140.43090021 148.58563623 139.7415887 150.39257812 139.05249023 C151.42838013 138.65569565 152.46418213 138.25890106 153.53137207 137.8500824 C156 137 156 137 158 137 C158.21959223 134.11271346 158.21959223 134.11271346 157 131 C154.22934947 129.11491852 151.13944371 128.15440632 147.984375 127.07421875 C146.57273827 126.55731476 146.57273827 126.55731476 145.13258362 126.02996826 C142.01278089 124.89306987 138.88179623 123.7908823 135.75 122.6875 C133.56047423 121.89532943 131.37192623 121.10045158 129.18432617 120.30297852 C124.66916331 118.65897077 120.15024488 117.02597409 115.62841797 115.40039062 C106.73443876 112.19258335 97.89554772 108.84240636 89.05862427 105.48129272 C84.45808943 103.73264469 79.85380615 101.9939189 75.25 100.25390625 C73.3984355 99.55355347 71.54687301 98.85319536 69.6953125 98.15283203 C63.73562473 95.89935415 57.77411659 93.65071285 51.8125 91.40234375 C48.78613987 90.26057038 45.75980952 89.11871814 42.73348999 87.97683716 C40.82656151 87.2575178 38.91952298 86.53849009 37.01235962 85.8197937 C27.58401003 82.26659016 18.16174714 78.69788188 8.76171875 75.0703125 C7.60649467 74.62750443 7.60649467 74.62750443 6.42793274 74.17575073 C1.11633176 72.11633176 1.11633176 72.11633176 0 71 C-0.09432985 68.79132169 -0.11742431 66.57958479 -0.11352539 64.36889648 C-0.11367142 63.67624695 -0.11381744 62.98359741 -0.1139679 62.2699585 C-0.11326874 59.97030554 -0.10547628 57.67073263 -0.09765625 55.37109375 C-0.09579208 53.78068588 -0.09436817 52.19027743 -0.09336853 50.59986877 C-0.08954329 46.4060407 -0.07971295 42.21224705 -0.06866455 38.01843262 C-0.05845057 33.74211086 -0.05387094 29.46578356 -0.04882812 25.18945312 C-0.03809069 16.79295292 -0.02101419 8.39648074 0 0 Z " fill="#F39044" transform="translate(259,359)"/>
<path d="M0 0 C86.13 0 172.26 0 261 0 C261 20.46 261 40.92 261 62 C174.87 62 88.74 62 0 62 C0 41.54 0 21.08 0 0 Z " fill="#F49044" transform="translate(535,717)"/>
</svg>
